<svg width="31" height="31" viewBox="0 0 31 31" fill="none" xmlns="http://www.w3.org/2000/svg">
<circle cx="15.5" cy="15.5" r="14.5" stroke="#AED300" stroke-width="2"/>
<mask id="mask0_1_357" style="mask-type:alpha" maskUnits="userSpaceOnUse" x="0" y="0" width="30" height="30">
<circle cx="15" cy="15" r="14" fill="white" stroke="#AED300" stroke-width="2"/>
</mask>
<g mask="url(#mask0_1_357)">
<path d="M12.9546 15.3699C12.0007 14.6484 12.1423 12.4021 12.112 12.4081C11.0182 13.2174 11.0247 15.6823 11.0247 15.6823L11.0348 15.7512C11.1074 16.2481 11.6088 16.5784 12.1488 16.4846C12.6888 16.3918 13.1846 15.9368 12.9979 15.4129" fill="#AED300"/>
<path d="M18.4466 15.2182C17.7751 14.1873 18.614 12.1276 18.5837 12.1216C17.3013 12.4789 16.5341 14.7991 16.5341 14.7991L16.5221 14.8679C16.4347 15.3619 16.8027 15.8579 17.339 15.9697C17.8762 16.0814 18.4843 15.8369 18.4742 15.2751" fill="#AED300"/>
<path d="M22.7875 23.0479H22.3975C21.7545 23.0479 21.2283 22.4771 21.2283 21.7795C21.2283 21.082 21.7545 20.5112 22.3975 20.5112H22.7875C23.4306 20.5112 23.9568 21.082 23.9568 21.7795C23.9558 22.4771 23.4306 23.0479 22.7875 23.0479Z" fill="#AED300"/>
<path d="M9.04317 23.048H7.28981C6.68267 23.048 6.18591 22.5091 6.18591 21.8505V21.7098C6.18591 21.0511 6.68267 20.5122 7.28981 20.5122H9.04317C9.65031 20.5122 10.1471 21.0511 10.1471 21.7098V21.8505C10.1471 22.5091 9.65031 23.048 9.04317 23.048Z" fill="#AED300"/>
<path d="M9.48206 6.8934C9.48206 6.8934 6.07653 12.9369 10.0331 16.9426C10.1472 16.8359 7.73974 20.17 7.73974 20.17C7.73974 20.17 2.18069 14.847 9.48206 6.8934Z" fill="#AED300"/>
<path d="M20.6847 6.8934C20.6847 6.8934 24.1748 12.9369 20.1199 16.9426C20.003 16.8359 22.4702 20.17 22.4702 20.17C22.4702 20.17 28.1672 14.847 20.6847 6.8934Z" fill="#AED300"/>
<path d="M15.087 14.4538C10.7183 14.4538 7.14355 18.6521 7.14355 23.7845V34.9444C9.32099 36.9693 12.0734 38.1788 15.0658 38.1788C18.0786 38.1788 20.8466 36.9533 23.0305 34.9045V23.7845C23.0314 18.6531 19.4566 14.4538 15.087 14.4538Z" fill="#AED300"/>
<path d="M17.4154 15.0994C15.2204 12.9777 16.4384 7.65674 16.3584 7.65674C13.2251 9.14267 12.3062 15.0495 12.3062 15.0495V15.2191C12.3062 16.4386 13.4772 17.4365 14.9086 17.4365C16.34 17.4365 17.7935 16.5524 17.511 15.2191" fill="#AED300"/>
</g>
</svg>
