<?xml version="1.0" encoding="utf-8"?>
<!-- Uploaded to: SVG Repo, www.svgrepo.com, Generator: SVG Repo Mixer Tools -->
<svg width="800px" height="800px" viewBox="0 0 24 24" fill="none" xmlns="http://www.w3.org/2000/svg">
<g id="style=doutone">
<g id="arrow-short-right">
<path id="vector (Stroke)" fill-rule="evenodd" clip-rule="evenodd" d="M8.20554 4.48413C7.92066 4.78483 7.93349 5.25953 8.23419 5.54441L14.0905 11.0925C14.6109 11.5855 14.6109 12.4143 14.0905 12.9074L8.2342 18.4555C7.9335 18.7403 7.92067 19.215 8.20554 19.5157C8.49041 19.8164 8.96511 19.8293 9.26581 19.5444L15.1221 13.9963C16.2671 12.9116 16.2671 11.0882 15.1221 10.0036L9.26581 4.45548C8.96511 4.1706 8.49041 4.18343 8.20554 4.48413Z" fill="#000000"/>
<path id="vector (Stroke)_2" fill-rule="evenodd" clip-rule="evenodd" d="M8.20554 19.5157C8.49041 19.8164 8.96511 19.8293 9.26581 19.5444L15.1221 13.9963C15.6944 13.4541 15.9808 12.7256 15.9808 11.9999C15.9808 11.5857 15.645 11.2499 15.2308 11.2499C14.8166 11.2499 14.4808 11.5857 14.4808 11.9999C14.4808 12.3318 14.3509 12.6607 14.0905 12.9074L8.23419 18.4555C7.93349 18.7403 7.92067 19.215 8.20554 19.5157Z" fill="#BFBFBF"/>
</g>
</g>
</svg>