<svg width="42" height="42" viewBox="0 0 42 42" fill="none" xmlns="http://www.w3.org/2000/svg">
<path fill-rule="evenodd" clip-rule="evenodd" d="M21.3663 3.42834C11.8991 3.42834 4.22458 11.1035 4.22458 20.5701C4.22458 30.0367 11.8991 37.7118 21.3663 37.7118C30.8324 37.7118 38.5081 30.0361 38.5081 20.5701C38.5081 11.1041 30.8324 3.42834 21.3663 3.42834ZM21.3663 5.9996C29.4123 5.9996 35.9368 12.5241 35.9368 20.5701C35.9368 28.6161 29.4123 35.1406 21.3663 35.1406C13.3193 35.1406 6.79585 28.6167 6.79585 20.5701C6.79585 12.5235 13.3193 5.9996 21.3663 5.9996ZM16.1832 17.0658C15.6807 16.6913 14.9664 16.7313 14.509 17.1867C14.0058 17.6877 14.0041 18.5017 14.505 19.0048L20.4549 24.9805L20.5993 25.1056C21.1034 25.481 21.8202 25.4393 22.277 24.9805L28.2269 19.0048L28.3511 18.8604C28.7234 18.3563 28.6804 17.6421 28.223 17.1867L28.0785 17.0625C27.5744 16.6902 26.8603 16.7332 26.4048 17.1906L21.3643 22.25L16.3271 17.1906L16.1832 17.0658Z" fill="white"/>
</svg>
