<?xml version="1.0" encoding="utf-8"?>
<!-- Uploaded to: SVG Repo, www.svgrepo.com, Generator: SVG Repo Mixer Tools -->
<svg width="800px" height="800px" viewBox="0 0 24 24" fill="none" xmlns="http://www.w3.org/2000/svg">
<g id="style=doutone">
<g id="arrow-short-left">
<path id="vector (Stroke)" fill-rule="evenodd" clip-rule="evenodd" d="M15.7754 4.48419C16.0603 4.78489 16.0475 5.25959 15.7468 5.54447L9.89044 11.0926C9.37001 11.5856 9.37001 12.4144 9.89044 12.9074L15.7468 18.4555C16.0475 18.7404 16.0603 19.2151 15.7754 19.5158C15.4905 19.8165 15.0158 19.8293 14.7151 19.5445L8.85882 13.9964C7.71389 12.9117 7.71389 11.0883 8.85882 10.0036L14.7151 4.45554C15.0158 4.17066 15.4905 4.18349 15.7754 4.48419Z" fill="#000000"/>
<path id="vector (Stroke)_2" fill-rule="evenodd" clip-rule="evenodd" d="M15.7754 19.5158C15.4905 19.8165 15.0158 19.8293 14.7151 19.5445L8.85882 13.9964C8.28653 13.4542 8.00012 12.7256 8.00012 12C8.00012 11.5858 8.33591 11.25 8.75012 11.25C9.16434 11.25 9.50012 11.5858 9.50012 12C9.50012 12.3318 9.63005 12.6608 9.89044 12.9074L15.7468 18.4555C16.0475 18.7404 16.0603 19.2151 15.7754 19.5158Z" fill="#BFBFBF"/>
</g>
</g>
</svg>