<svg width="15" height="20" viewBox="0 0 15 20" fill="none" xmlns="http://www.w3.org/2000/svg">
<path d="M13.4275 9.12059C13.7239 9.14483 14.021 9.12921 14.3178 9.13161C14.3859 9.13221 14.4091 9.15044 14.4089 9.22174C14.4063 10.5033 14.4125 11.785 14.4025 13.0666C14.3983 13.6005 14.3148 14.1273 14.1796 14.6454C14.0182 15.2639 13.776 15.8483 13.4564 16.4009C13.2226 16.8048 12.9472 17.1792 12.6378 17.5287C12.1369 18.0943 11.5595 18.5681 10.9056 18.9443C10.1908 19.3556 9.42648 19.6344 8.61133 19.7776C8.07217 19.8724 7.5306 19.8928 6.98743 19.8684C6.40701 19.8421 5.83961 19.733 5.28443 19.5569C4.61308 19.3442 3.9882 19.0392 3.41138 18.6372C2.84238 18.2409 2.34127 17.7718 1.90926 17.2276C1.48626 16.6955 1.14639 16.1161 0.894229 15.4858C0.645878 14.8645 0.480845 14.2214 0.42757 13.5526C0.350862 12.5899 0.404537 11.6251 0.391519 10.6614C0.38511 10.1875 0.393121 9.71343 0.388114 9.23956C0.387113 9.14763 0.416154 9.12921 0.500873 9.13081C0.754432 9.13602 1.00819 9.13301 1.26175 9.13221C1.298 9.13201 1.33425 9.1266 1.3705 9.1236C1.42057 9.09876 1.47445 9.10437 1.52752 9.10437C2.23312 9.10337 2.93852 9.10557 3.64411 9.10277C3.73043 9.07834 3.81656 9.10497 3.90288 9.10497C5.24678 9.10397 6.59067 9.11018 7.93457 9.09936C8.21356 9.09716 8.49456 9.09256 8.77235 9.09716C9.56247 9.11018 10.3526 9.09115 11.1427 9.10738C11.8551 9.10057 12.5675 9.10617 13.2799 9.10437C13.3296 9.10437 13.3801 9.09936 13.4275 9.12059Z" fill="white"/>
<path d="M3.65398 9.12534C3.5977 9.12714 3.54142 9.13074 3.48514 9.13074C2.81339 9.13094 2.14164 9.13094 1.4697 9.13034C1.43665 9.13034 1.4036 9.12674 1.37056 9.12473C1.37116 8.2537 1.35493 7.38227 1.37636 6.51185C1.41141 5.08623 1.90691 3.82766 2.83783 2.74933C3.72989 1.71608 4.84707 1.03491 6.19036 0.784761C8.44475 0.364968 10.3695 1.01068 11.915 2.70447C12.8353 3.71289 13.321 4.9244 13.4122 6.28893C13.4464 6.80206 13.4226 7.31638 13.4266 7.83011C13.43 8.26051 13.4274 8.69112 13.4274 9.12153C13.4048 9.12473 13.3821 9.13054 13.3595 9.13054C12.6407 9.13114 11.9217 9.13114 11.2028 9.13074C11.1832 9.13074 11.1636 9.12634 11.144 9.12413C11.1023 9.07927 11.1159 9.02319 11.1159 8.97152C11.1149 8.16758 11.1241 7.36345 11.1123 6.55971C11.1037 5.9839 10.9467 5.44173 10.6763 4.93202C10.4608 4.52564 10.1728 4.17655 9.8297 3.87572C9.44176 3.53564 8.99693 3.2883 8.50183 3.13568C8.2008 3.04295 7.89377 2.99148 7.57812 2.97706C6.58452 2.93179 5.70848 3.23422 4.96263 3.88434C4.234 4.51943 3.812 5.32597 3.70265 6.29113C3.68803 6.42072 3.68242 6.5501 3.68242 6.68028C3.68322 7.44416 3.68302 8.20824 3.68222 8.97212C3.68202 9.02419 3.69364 9.07987 3.65398 9.12534Z" fill="white"/>
<path d="M7.39467 16.6264C6.94103 16.6264 6.48739 16.6248 6.03375 16.628C5.95384 16.6286 5.93161 16.6168 5.95564 16.53C6.19358 15.6694 6.4257 14.8074 6.66404 13.9468C6.68647 13.8661 6.67606 13.8276 6.60275 13.7806C5.95224 13.364 5.74074 12.5045 6.11867 11.8346C6.50221 11.1548 7.3424 10.8845 8.03938 11.2315C8.53287 11.4775 8.81848 11.8855 8.85913 12.4387C8.90079 13.0077 8.67027 13.4573 8.1992 13.7783C8.1293 13.826 8.11168 13.8623 8.13451 13.9448C8.37145 14.7988 8.60357 15.6542 8.8367 16.5092C8.86855 16.626 8.86795 16.6264 8.74557 16.6266C8.29534 16.6268 7.8449 16.6266 7.39467 16.6266C7.39467 16.6268 7.39467 16.6266 7.39467 16.6264Z" fill="#1E2128"/>
</svg>
